<svg xmlns="http://www.w3.org/2000/svg" fill-rule="evenodd" clip-rule="evenodd" viewBox="0 0 1061 368"><path fill="none" d="M0 0h1060.02v367.13H0z"/><g fill-rule="nonzero"><path fill="#f0047f" d="M159.09 63.012c-66.937 0-121.053 54.115-121.053 121.052 0 66.938 54.116 121.053 121.054 121.053 66.937 0 121.053-54.115 121.053-121.053V63.012H159.091z"/><path fill="#fff" stroke="#f0047f" d="M62.133 75.2v33.985c-18.394-.778-33.206-15.591-33.984-33.985h33.984zM65.2 75.267h33.985c-.779 18.394-15.591 33.206-33.985 33.984V75.267zM65.2 38.131h34.002v34.002H65.2z" transform="matrix(2.4975 0 0 2.49748 0 0)"/></g><g fill-rule="nonzero"><path fill="#1a1a1a" d="M360.83 107.497c4.105-5.472 10.64-9.12 18.24-9.12 11.552 0 19.001 9.577 19.001 20.217 0 11.55-8.36 20.063-19.457 20.063-7.447 0-13.984-3.647-17.783-9.12v-22.04zm-.76 47.881v-5.929c6.08 5.168 13.072 7.449 20.521 7.449 10.944 0 21.28-4.865 27.816-12.465 5.776-6.688 9.424-15.806 9.424-25.839 0-21.737-16.113-38.455-36.177-38.455-8.056 0-15.048 2.279-20.823 6.839v-39.52h-19.76v107.92h19zM483.191 129.537c-3.8 5.473-10.336 9.12-17.784 9.12-11.096 0-19.456-8.512-19.456-20.063 0-10.64 7.448-20.217 19-20.217 7.6 0 14.137 3.648 18.24 9.12v22.04zm19.76-47.878h-19v5.926c-5.776-4.711-13.225-7.446-21.584-7.446-20.064 0-36.176 16.718-36.176 38.455 0 10.033 3.648 19.15 9.423 25.839 6.537 7.6 16.872 12.465 27.817 12.465 7.448 0 14.44-2.281 20.52-7.449v5.929h19v-73.72zM569.072 80.746c-2.128-.305-3.8-.607-6.689-.607-8.967 0-17.024 3.494-21.431 8.966V81.66h-19v73.719h19.759v-46.36c2.432-4.41 9.272-10.64 17.937-10.64 2.888 0 5.776.304 7.144.76l2.28-18.392zM629.872 128.93c-3.192 4.864-9.576 9.727-17.632 9.727-12.009 0-20.369-8.512-20.369-20.063 0-11.248 8.513-20.217 19.913-20.217 7.144 0 13.072 3.648 17.024 8.818l13.984-12.314c-6.84-8.816-18.24-14.742-31.008-14.742-22.496 0-39.673 17.023-39.673 38.455 0 21.28 16.721 38.304 39.52 38.304 13.832 0 24.777-5.016 33.442-16.57l-15.201-11.399zM708 132.426c-3.496 3.799-10.183 8.513-18.544 8.513-10.488 0-18.848-7.145-19.912-17.482h51.072c.305-1.672.457-3.648.457-5.624 0-20.52-14.44-37.694-34.809-37.694-21.888 0-35.872 17.935-35.872 38.455 0 23.103 16.568 38.304 38.608 38.304 11.4 0 23.104-4.712 30.248-13.224L708 132.426zm-37.544-23.409c.912-6.687 7.6-12.919 15.808-12.919 8.057 0 13.984 6.383 14.592 12.92h-30.4zM733.992 47.459h19.76v107.919h-19.76zM766.673 118.594c0 21.28 16.872 38.304 39.216 38.304s39.216-17.023 39.216-38.304c0-21.28-16.872-38.455-39.216-38.455s-39.216 17.174-39.216 38.455zm19.76 0c0-11.097 7.903-20.217 19.456-20.217s19.456 9.12 19.456 20.217-7.903 20.063-19.456 20.063-19.456-8.966-19.456-20.063zM877.786 155.378v-47.88c2.736-3.8 9.575-9.12 17.935-9.12 4.56 0 8.512 1.52 11.097 4.103 2.736 2.737 4.407 6.536 4.407 13.832v39.065h19.76v-37.545c0-12.615-2.735-20.064-7.6-25.839-6.079-7.297-15.351-11.855-25.536-11.855-8.207 0-15.2 2.886-20.823 7.446V81.66h-19v73.719h19.76zM999.39 129.537c-3.804 5.473-10.34 9.12-17.788 9.12-11.096 0-19.456-8.512-19.456-20.063 0-10.64 7.448-20.217 19-20.217 7.6 0 14.136 3.648 18.244 9.12v22.04zm19.758-47.878h-18.996v5.926c-5.782-4.711-13.23-7.446-21.59-7.446-20.064 0-36.176 16.718-36.176 38.455 0 10.033 3.648 19.15 9.424 25.839 6.536 7.6 16.873 12.465 27.816 12.465 7.448 0 14.44-2.281 20.526-7.449v5.929h18.996v-73.72z"/><path fill="#f0047f" d="M326.63 336.313c2.128.456 5.928 1.064 9.88 1.064 12.768 0 20.52-4.56 25.08-10.943 3.8-5.473 5.32-12.16 5.32-23.257v-77.519h-19.76v77.519c0 7.297-.912 10.489-2.888 12.617-2.128 2.28-5.32 3.344-9.423 3.344-1.065 0-3.8-.304-5.169-.76l-3.04 17.935zm17.48-136.8c0 7.144 5.776 12.616 12.92 12.616 7.145 0 12.92-5.472 12.92-12.616 0-7.144-5.775-12.615-12.92-12.615-7.144 0-12.92 5.47-12.92 12.615zM436.831 273.537c-3.8 5.473-10.337 9.12-17.784 9.12-11.096 0-19.456-8.51-19.456-20.063 0-10.64 7.448-20.217 18.999-20.217 7.601 0 14.136 3.65 18.241 9.12v22.04zm19.76-47.879h-19v5.927c-5.776-4.711-13.225-7.447-21.585-7.447-20.063 0-36.175 16.719-36.175 38.456 0 10.033 3.647 19.15 9.423 25.84 6.537 7.599 16.872 12.464 27.817 12.464 7.448 0 14.44-2.281 20.52-7.449v5.929h19v-73.72zM495.35 299.378v-47.88c2.737-3.497 8.817-9.121 17.177-9.121 3.8 0 8.057 1.217 11.096 4.56 2.28 2.584 3.648 5.929 3.648 12.617v39.824h19.76v-39.065c0-3.038-.304-5.776-.607-8.208 2.583-3.8 9.272-9.728 17.784-9.728 3.8 0 8.056 1.217 11.096 4.56 2.279 2.584 3.648 5.929 3.648 12.617v39.824h19.76v-39.065c0-10.943-2.737-18.544-7.448-24.319-5.929-7.295-15.657-11.856-25.84-11.856-10.945 0-20.216 5.32-26.145 11.551-5.776-6.99-14.744-11.55-24.776-11.55-7.144 0-14.136 2.278-19.912 7.446v-5.927h-19v73.72h19.76zM608.896 291.019c8.664 6.383 19.456 9.879 29.64 9.879 15.504 0 29.336-8.664 29.336-22.8 0-25.537-35.72-21.736-35.72-31.312 0-3.8 4.56-5.93 10.032-5.93 5.32 0 10.336 2.282 14.137 5.017l9.27-14.288c-4.863-3.799-15.351-7.447-24.927-7.447-14.592 0-28.272 8.816-28.272 22.953 0 23.71 35.72 19.758 35.72 30.855 0 3.647-4.104 6.231-9.424 6.231-7.448 0-15.2-2.735-20.217-7.295l-9.575 14.137zM731.712 282.657c-1.368.305-5.167.761-8.055.761-4.864 0-8.057-1.368-10.033-3.647-1.67-1.977-2.431-4.714-2.431-9.274v-28.12h24.32v-16.719h-24.32v-20.521h-19.76v20.521h-20.52v16.719h20.52v25.84c0 10.49 1.67 17.024 5.471 22.04 5.017 6.688 13.68 10.64 25.537 10.64 3.8 0 9.728-.607 12.311-1.52l-3.04-16.72zM799.353 273.537c-3.8 5.473-10.336 9.12-17.784 9.12-11.097 0-19.457-8.51-19.457-20.063 0-10.64 7.45-20.217 19-20.217 7.6 0 14.137 3.65 18.24 9.12v22.04zm19.76-47.879h-19v5.927c-5.777-4.711-13.224-7.447-21.584-7.447-20.065 0-36.177 16.719-36.177 38.456 0 10.033 3.649 19.15 9.425 25.84 6.536 7.599 16.872 12.464 27.815 12.464 7.45 0 14.441-2.281 20.52-7.449v5.929h19v-73.72zM889.794 272.93c-3.193 4.864-9.577 9.727-17.632 9.727-12.008 0-20.368-8.51-20.368-20.063 0-11.248 8.512-20.217 19.91-20.217 7.145 0 13.074 3.65 17.025 8.818l13.984-12.312c-6.84-8.818-18.24-14.745-31.008-14.745-22.496 0-39.672 17.024-39.672 38.456 0 21.28 16.72 38.304 39.52 38.304 13.833 0 24.776-5.017 33.44-16.567l-15.2-11.402zM989.354 225.658h-27.816l-25.384 23.863v-58.063h-19.76v107.92h19.76v-31.921l31.16 31.92h26.6l-40.585-40.582 36.025-33.137z"/></g></svg>